<svg width="734" height="101" viewBox="0 0 734 101" fill="none" xmlns="http://www.w3.org/2000/svg">
<path fill-rule="evenodd" clip-rule="evenodd" d="M0.778576 50.8141C0.889559 40.4927 3.05746 31.4839 7.41854 23.9094L7.42209 23.9033L7.42566 23.8971C11.8561 16.2859 17.8592 10.4417 25.4129 6.43593C32.927 2.45119 41.3105 0.486328 50.4984 0.486328C59.9098 0.486328 68.0473 2.20009 74.7743 5.79078C81.3616 9.20138 86.5655 13.7979 90.2863 19.5996C94.0337 25.1725 96.4335 31.2268 97.4617 37.7384L98.0093 41.2063H68.8273L68.484 38.5977C68.0253 35.1109 66.7657 32.9568 65.0184 31.6463L64.9938 31.6278L64.9695 31.6088C62.9097 29.9968 60.5973 28.9725 57.9887 28.5227L57.929 28.5124L57.8698 28.4997C55.0316 27.8915 52.5816 27.6063 50.4984 27.6063C42.674 27.6063 37.4286 29.656 34.1387 33.2056L34.1261 33.2192L34.1134 33.2326C30.7359 36.7878 28.8584 41.9331 28.8584 49.0863C28.8584 57.07 30.7273 62.855 34.0745 66.8355C37.2596 70.6233 42.449 72.8063 50.3384 72.8063C52.5267 72.8063 55.0746 72.5215 58.0011 71.9188C60.5975 71.2844 62.924 70.0764 65.0099 68.2625L65.0336 68.2418L65.0579 68.2217C66.8789 66.7041 68.1743 64.2928 68.6416 60.5542L68.9701 57.9263H98.3697L97.7762 61.4277C96.6409 68.1258 94.1988 74.4204 90.4714 80.2938L90.4643 80.305L90.4571 80.3161C86.6322 86.2273 81.323 90.9351 74.6232 94.4571C67.8854 98.0558 59.6338 99.7663 50.0184 99.7663C41.0735 99.7663 32.8335 97.9743 25.3496 94.3458C17.7795 90.6754 11.7494 85.1546 7.29658 77.8474C2.77559 70.4284 0.667566 61.36 0.778576 50.8141ZM58.6584 74.8463C55.5651 75.4863 52.7917 75.8063 50.3384 75.8063C41.9117 75.8063 35.7251 73.4597 31.7784 68.7663C27.8317 64.073 25.8584 57.513 25.8584 49.0863C25.8584 41.4063 27.8851 35.433 31.9384 31.1663C35.9917 26.793 42.1784 24.6063 50.4984 24.6063C52.8451 24.6063 55.5117 24.9263 58.4984 25.5663C61.5917 26.0997 64.3651 27.3263 66.8184 29.2463C69.3784 31.1663 70.9251 34.153 71.4584 38.2063H94.4984C94.3387 37.1945 94.1434 36.1945 93.9128 35.2063C92.7574 30.2565 90.7126 25.6032 87.7784 21.2463C84.3651 15.913 79.5651 11.6463 73.3784 8.44632C67.1917 5.13966 59.5651 3.48633 50.4984 3.48633C41.7517 3.48633 33.8584 5.35299 26.8184 9.08632C19.7784 12.8197 14.1784 18.2597 10.0184 25.4063C5.96507 32.4463 3.88507 40.9263 3.7784 50.8463C3.67174 60.9797 5.6984 69.4597 9.8584 76.2863C14.0184 83.113 19.6184 88.233 26.6584 91.6463C33.6984 95.0597 41.4851 96.7663 50.0184 96.7663C59.2984 96.7663 67.0317 95.113 73.2184 91.8063C79.5117 88.4997 84.4184 84.1263 87.9384 78.6863C90.8937 74.0295 92.9844 69.1095 94.2103 63.9263C94.4446 62.9359 94.6473 61.9359 94.8184 60.9263H71.6184C71.0851 65.193 69.5384 68.393 66.9784 70.5263C64.5251 72.6597 61.7517 74.0997 58.6584 74.8463ZM110.766 86.8104L110.76 86.8035C102.238 77.5911 98.1222 65.3328 98.1222 50.3663C98.1222 40.52 99.892 31.8364 103.547 24.4092C107.225 16.8274 112.767 10.9378 120.116 6.80027C127.513 2.52826 136.596 0.486328 147.202 0.486328C162.713 0.486328 174.981 4.93549 183.491 14.2568C191.904 23.3646 195.962 35.5156 195.962 50.3663C195.962 60.0265 194.129 68.703 190.378 76.3227C186.702 83.8999 181.167 89.8357 173.833 94.0781C166.54 98.359 157.609 100.406 147.202 100.406C131.696 100.406 119.388 96.0143 110.773 86.8172L110.766 86.8104ZM172.322 91.4863C179.149 87.5397 184.269 82.0463 187.682 75.0063C191.202 67.8597 192.962 59.6463 192.962 50.3663C192.962 36.073 189.069 24.713 181.282 16.2863C173.495 7.75299 162.135 3.48633 147.202 3.48633C136.962 3.48633 128.429 5.45966 121.602 9.40633C114.775 13.2463 109.655 18.6863 106.242 25.7263C102.829 32.6597 101.122 40.873 101.122 50.3663C101.122 64.7663 105.069 76.233 112.962 84.7663C120.855 93.193 132.269 97.4063 147.202 97.4063C157.229 97.4063 165.602 95.433 172.322 91.4863ZM165.588 61.9308L165.596 61.9138C167.219 58.3819 168.042 54.5454 168.042 50.3663C168.042 46.07 167.215 42.1817 165.596 38.6588L165.582 38.6281L165.569 38.5971C164.098 35.197 161.824 32.5113 158.692 30.485L158.675 30.4739L158.658 30.4625C155.754 28.5266 151.898 27.4463 146.882 27.4463C139.782 27.4463 134.733 29.6479 131.263 33.7319C127.736 38.0086 125.882 43.4784 125.882 50.3663C125.882 54.4367 126.652 58.2279 128.176 61.7698C129.757 65.0982 132.055 67.7561 135.106 69.7902C138.01 71.7261 141.866 72.8063 146.882 72.8063C151.916 72.8063 155.79 71.7711 158.702 69.9215C161.849 67.8827 164.119 65.237 165.581 61.9479L165.588 61.9308ZM160.322 72.4463C156.802 74.6863 152.322 75.8063 146.882 75.8063C141.442 75.8063 136.962 74.633 133.442 72.2863C129.922 69.9397 127.255 66.8463 125.442 63.0063C123.735 59.0597 122.882 54.8463 122.882 50.3663C122.882 42.8997 124.909 36.713 128.962 31.8063C133.122 26.8997 139.095 24.4463 146.882 24.4463C152.322 24.4463 156.802 25.6197 160.322 27.9663C163.949 30.313 166.615 33.4597 168.322 37.4063C170.135 41.353 171.042 45.673 171.042 50.3663C171.042 54.953 170.135 59.2197 168.322 63.1663C166.615 67.0063 163.949 70.0997 160.322 72.4463ZM263.585 2.08633H292.945V98.1663H244.627L232.945 42.3125V98.1663H203.745V2.08633H248.774L263.585 62.0465V2.08633ZM266.585 85.4063H266.265L246.425 5.08633H206.745V95.1663H229.945V14.8463H230.265L247.065 95.1663H289.945V5.08633H266.585V85.4063ZM297.966 50.8141C298.077 40.4927 300.245 31.4839 304.606 23.9094L304.61 23.9033L304.613 23.8971C309.044 16.2859 315.047 10.4417 322.6 6.43593C330.114 2.45119 338.498 0.486328 347.686 0.486328C357.098 0.486328 365.236 2.20026 371.963 5.79131C378.55 9.20191 383.753 13.7983 387.474 19.5998C391.221 25.1727 393.621 31.2269 394.649 37.7384L395.197 41.2063H366.015L365.672 38.5977C365.213 35.1109 363.953 32.9568 362.206 31.6463L362.181 31.6278L362.157 31.6088C360.097 29.9968 357.785 28.9725 355.176 28.5227L355.117 28.5124L355.057 28.4997C352.219 27.8915 349.769 27.6063 347.686 27.6063C339.862 27.6063 334.616 29.656 331.326 33.2056L331.314 33.2192L331.301 33.2326C327.923 36.7878 326.046 41.9331 326.046 49.0863C326.046 57.07 327.915 62.855 331.262 66.8355C334.447 70.6233 339.637 72.8063 347.526 72.8063C349.714 72.8063 352.262 72.5215 355.189 71.9188C357.785 71.2844 360.111 70.0763 362.197 68.2625L362.221 68.2418L362.245 68.2217C364.066 66.7041 365.362 64.2928 365.829 60.5542L366.158 57.9263H395.557L394.964 61.4277C393.828 68.1258 391.386 74.4204 387.659 80.2938L387.652 80.305L387.645 80.3161C383.82 86.2269 378.511 90.9344 371.812 94.4564C365.074 98.0556 356.822 99.7663 347.206 99.7663C338.261 99.7663 330.021 97.9743 322.537 94.3458C314.967 90.6754 308.937 85.1546 304.484 77.8474C299.963 70.4284 297.855 61.36 297.966 50.8141ZM370.406 91.8063C376.699 88.4997 381.606 84.1263 385.126 78.6863C388.081 74.0295 390.172 69.1095 391.398 63.9263C391.632 62.9359 391.835 61.9359 392.006 60.9263H368.806C368.273 65.193 366.726 68.393 364.166 70.5263C361.713 72.6597 358.939 74.0997 355.846 74.8463C352.753 75.4863 349.979 75.8063 347.526 75.8063C339.099 75.8063 332.913 73.4597 328.966 68.7663C325.019 64.073 323.046 57.513 323.046 49.0863C323.046 41.4063 325.073 35.433 329.126 31.1663C333.179 26.793 339.366 24.6063 347.686 24.6063C350.033 24.6063 352.699 24.9263 355.686 25.5663C358.779 26.0997 361.553 27.3263 364.006 29.2463C366.566 31.1663 368.113 34.153 368.646 38.2063H391.686C391.526 37.1945 391.331 36.1945 391.1 35.2063C389.945 30.2565 387.9 25.6032 384.966 21.2463C381.553 15.913 376.753 11.6463 370.566 8.44632C364.379 5.13966 356.753 3.48633 347.686 3.48633C338.939 3.48633 331.046 5.35299 324.006 9.08632C316.966 12.8197 311.366 18.2597 307.206 25.4063C303.153 32.4463 301.073 40.9263 300.966 50.8463C300.859 60.9797 302.886 69.4597 307.046 76.2863C311.206 83.113 316.806 88.233 323.846 91.6463C330.886 95.0597 338.673 96.7663 347.206 96.7663C356.486 96.7663 364.219 95.113 370.406 91.8063ZM401.07 98.1663V2.08633H440.71C452.752 2.08633 462.643 4.21395 470.111 8.7645C478.044 13.5988 481.79 21.7027 481.79 32.2863C481.79 40.7963 479.89 47.8443 475.695 53.0371C473.728 55.5359 471.406 57.4349 468.766 58.7387C470.207 60.2372 471.239 62.0559 471.876 64.1332C472.662 66.2805 473.28 68.4825 473.731 70.738C474.12 72.6787 474.642 74.3764 475.282 75.848C475.676 76.6756 476.192 77.1344 476.9 77.3984C477.675 77.5475 479.295 77.4042 482.123 76.2343L486.27 74.5183V92.5461L485.222 93.4441C481.885 96.3041 478.135 98.1966 473.996 99.0562C469.835 100.027 465.772 99.7899 461.892 98.2937C457.969 96.8484 454.821 94.0606 452.406 90.1963L452.395 90.1789L452.384 90.1612C449.866 86.0067 448.75 80.655 448.75 74.3663C448.75 71.9675 448.549 69.8868 448.174 68.1044L448.156 68.0183L448.143 67.9314C447.927 66.4908 447.313 65.382 446.265 64.4734C445.314 63.6497 443.496 62.858 440.338 62.4632L440.292 62.4575L440.247 62.4504C437.674 62.0484 434.106 61.9681 429.47 62.2657V98.1663H401.07ZM426.47 59.4863C432.55 58.953 437.296 58.953 440.71 59.4863C444.123 59.913 446.63 60.8197 448.23 62.2063C449.83 63.593 450.79 65.353 451.11 67.4863C451.536 69.513 451.75 71.8063 451.75 74.3663C451.75 80.3397 452.816 85.0863 454.95 88.6063C457.083 92.0197 459.75 94.313 462.95 95.4863C466.256 96.7663 469.723 96.9797 473.35 96.1263C476.976 95.3797 480.283 93.7263 483.27 91.1663V79.0063C482.184 79.4554 481.184 79.7995 480.27 80.0385C478.577 80.4807 477.177 80.5633 476.07 80.2863C474.47 79.753 473.296 78.6863 472.55 77.0863C471.803 75.3797 471.216 73.4597 470.79 71.3263C470.363 69.193 469.776 67.113 469.03 65.0863C468.39 62.953 467.27 61.2463 465.67 59.9663C465.666 59.9629 465.662 59.9595 465.659 59.9561C464.165 58.5762 461.929 57.8863 458.95 57.8863C461.6 57.8863 464.007 57.4607 466.171 56.6094C468.971 55.5078 471.364 53.6934 473.35 51.1663C476.976 46.6863 478.79 40.393 478.79 32.2863C478.79 22.473 475.376 15.4863 468.55 11.3263C461.723 7.16632 452.443 5.08633 440.71 5.08633H404.07V95.1663H426.47V59.4863ZM454.154 28.3573L454.085 28.2958C452.971 27.3133 451.012 26.514 447.733 26.3211L447.728 26.3208C444.29 26.1124 439.982 26.0063 434.79 26.0063H429.47V40.8063H437.67C442.559 40.8063 446.521 40.7531 449.566 40.6481C452.338 40.5525 453.835 39.9383 454.591 39.2943C455.203 38.7588 455.95 37.4043 455.95 34.2063C455.95 30.6112 455.06 29.0614 454.228 28.4144L454.154 28.3573ZM426.47 43.8063V23.0063H434.79C440.016 23.0063 444.39 23.113 447.91 23.3263C451.536 23.5397 454.256 24.4463 456.07 26.0463C457.99 27.5397 458.95 30.2597 458.95 34.2063C458.95 37.7263 458.15 40.1797 456.55 41.5663C455.056 42.8463 452.763 43.5397 449.67 43.6463C446.576 43.753 442.576 43.8063 437.67 43.8063H426.47ZM569.49 74.4063V98.1663H493.57V2.08633H567.73V27.1263H521.49V37.6063H555.89V61.5263H521.49V74.4063H569.49ZM518.49 77.4063V58.5263H552.89V40.6063H518.49V24.1263H564.73V5.08633H496.57V95.1663H566.49V77.4063H518.49ZM570.92 27.1263V2.08633H648.12V27.1263H623.64V98.1663H595.24V27.1263H570.92ZM598.24 24.1263V95.1663H620.64V24.1263H645.12V5.08633H573.92V24.1263H598.24ZM733.24 74.4063V98.1663H657.32V2.08633H731.48V27.1263H685.24V37.6063H719.64V61.5263H685.24V74.4063H733.24ZM682.24 77.4063V58.5263H716.64V40.6063H682.24V24.1263H728.48V5.08633H660.32V95.1663H730.24V77.4063H682.24Z" fill="black"/>
</svg>
