<?xml version="1.0" encoding="UTF-8"?>
<svg id="Layer_2" data-name="Layer 2" xmlns="http://www.w3.org/2000/svg" viewBox="0 0 1404.38 166.32">
  <defs>
    <style>
      .cls-1 {
        fill: none;
        stroke: #000;
        stroke-miterlimit: 10;
      }
    </style>
  </defs>
  <g id="Layer_1-2" data-name="Layer 1">
    <g>
      <path class="cls-1" d="m153.96,101.36v59.77h-13.03c-1.49-6.34-3.72-11.43-6.69-15.26-13.23,13.31-30.69,19.96-52.37,19.96-24.66,0-44.38-8.06-59.18-24.19C7.9,125.51.5,106.37.5,84.22S7.82,42.97,22.46,25.98C37.09,8.99,57.33.5,83.16.5c19.33,0,35.73,6.38,49.2,19.14,1.8-3.99,3.44-8.73,4.93-14.21h12.92l1.64,58.83h-12.92c-3.84-15.97-10.12-28.04-18.85-36.22-8.73-8.18-19.08-12.27-31.06-12.27-13.78,0-24.15,5.4-31.12,16.2-6.97,10.8-10.45,27.67-10.45,50.61,0,16.13,1.25,28.9,3.76,38.34,2.5,9.43,7.46,16.69,14.85,21.78,7.4,5.09,15.48,7.63,24.25,7.63,11.58,0,21.92-4.03,31-12.09,9.08-8.06,15.62-20.35,19.61-36.87h13.03Z"/>
      <path class="cls-1" d="m180.85,82.46c0-14.33,3.99-28.3,11.98-41.92,7.98-13.62,18.81-23.7,32.47-30.23,13.66-6.54,28.28-9.8,43.86-9.8,28.02,0,50,8.08,65.93,24.25,15.93,16.17,23.89,35.99,23.89,59.47s-7.95,41.49-23.84,57.53c-15.89,16.05-37.5,24.07-64.81,24.07-18.71,0-35.25-3.95-49.61-11.86-14.37-7.91-24.6-18.53-30.7-31.88-6.11-13.35-9.16-26.55-9.16-39.63Zm49.08-1.29c0,24.5,3.29,42.17,9.86,53.01,6.58,10.84,16.36,16.26,29.35,16.26s23.76-4.95,30.65-14.85c6.89-9.9,10.33-27.26,10.33-52.07,0-22.7-3.23-39.65-9.69-50.84-6.46-11.19-16.73-16.79-30.82-16.79-13.31,0-23.25,5.21-29.82,15.62-6.58,10.41-9.86,26.97-9.86,49.67Z"/>
      <path class="cls-1" d="m413.46,48.64v73.15c0,11.74,2.13,19.3,6.4,22.66,4.27,3.37,9.73,5.05,16.38,5.05v13.03h-59.77v-13.03c5.09,0,9.51-1.23,13.27-3.7s6.14-5.32,7.16-8.57c1.02-3.25,1.53-8.35,1.53-15.32V40.66c0-16.2-7.59-24.31-22.78-24.31V3.32h53.78l87.24,97.46v-58.36c0-17.38-7.32-26.07-21.96-26.07V3.32h57.18v13.03c-3.99,0-7.73,1.1-11.21,3.29-3.48,2.19-5.85,4.99-7.1,8.4-1.25,3.41-1.88,8.36-1.88,14.85v122.23h-15.03l-103.21-116.48Z"/>
      <path class="cls-1" d="m722.62,101.36v59.77h-13.03c-1.49-6.34-3.72-11.43-6.69-15.26-13.23,13.31-30.69,19.96-52.37,19.96-24.66,0-44.38-8.06-59.18-24.19-14.79-16.12-22.19-35.26-22.19-57.42s7.32-41.25,21.96-58.24c14.64-16.99,34.87-25.48,60.7-25.48,19.33,0,35.73,6.38,49.2,19.14,1.8-3.99,3.44-8.73,4.93-14.21h12.92l1.64,58.83h-12.92c-3.84-15.97-10.12-28.04-18.85-36.22-8.73-8.18-19.08-12.27-31.06-12.27-13.78,0-24.15,5.4-31.12,16.2-6.97,10.8-10.45,27.67-10.45,50.61,0,16.13,1.25,28.9,3.76,38.34,2.5,9.43,7.46,16.69,14.85,21.78,7.4,5.09,15.48,7.63,24.25,7.63,11.58,0,21.92-4.03,31-12.09,9.08-8.06,15.62-20.35,19.61-36.87h13.03Z"/>
      <path class="cls-1" d="m806.92,92.32v37.69c0,7.28,1.25,12.35,3.76,15.21,2.5,2.86,7.63,4.29,15.38,4.29h2.82v13.03h-85.83v-13.03h3.17c7.98,0,13.17-1.47,15.56-4.4,2.39-2.94,3.58-7.96,3.58-15.09V35.84c0-7.28-1.25-12.35-3.76-15.21-2.51-2.86-7.63-4.29-15.38-4.29h-3.17V3.32l63.88-.12,14.32-.12c14.17,0,24.52.47,31.06,1.41,6.53.94,12.97,3.19,19.31,6.75,6.34,3.56,11.33,8.44,14.97,14.62,3.64,6.18,5.46,12.84,5.46,19.96,0,18.94-10.72,31.9-32.17,38.87,5.71,3.6,14.6,14.87,26.65,33.82,9.39,14.64,16.09,23.47,20.08,26.48,3.99,3.01,8.38,4.52,13.15,4.52v13.03h-49.79c-4.54-5.4-12.96-19.1-25.25-41.1-6.18-11.11-10.53-18.28-13.03-21.49-2.51-3.21-5.07-5.26-7.69-6.16-2.62-.9-8.32-1.39-17.08-1.47Zm0-14.32c13.23.16,22.15-.65,26.77-2.41,4.62-1.76,8.26-4.93,10.92-9.51,2.66-4.58,3.99-10.78,3.99-18.61,0-11.19-2.64-18.94-7.93-23.25-5.28-4.3-14.38-6.46-27.3-6.46-1.64,0-3.8.04-6.46.12v60.12Z"/>
      <path class="cls-1" d="m987.75,86.45v39.33c0,7.51.43,12.43,1.29,14.74.86,2.31,3.17,4.23,6.93,5.75s9.47,2.29,17.14,2.29c10.41,0,18.06-1.29,22.96-3.88,4.89-2.58,9.28-7.12,13.15-13.62,3.88-6.5,6.67-13.42,8.4-20.78h13.15l-1.06,52.25h-145.6v-13.03h2.94c7.91,0,13.05-1.47,15.44-4.4,2.39-2.94,3.58-7.96,3.58-15.09V35.61c0-7.28-1.23-12.35-3.7-15.21-2.46-2.86-7.57-4.29-15.32-4.29h-2.94V3.32h135.62l2.35,41.21h-13.15c-2.35-7.2-4.97-12.93-7.87-17.2-2.9-4.27-5.81-7-8.75-8.22-2.94-1.21-7.89-1.82-14.85-1.82h-29.71v54.95h14.79c7.04,0,11.72-1.33,14.03-3.99,2.31-2.66,3.62-7.91,3.93-15.73h13.27v54.01h-13.27c.08-1.02.12-1.76.12-2.23,0-4.54-.96-8.65-2.88-12.33-1.92-3.68-6.83-5.52-14.74-5.52h-15.26Z"/>
      <path class="cls-1" d="m1143.79,17.53h-13.39c-7.98,0-13.86.86-17.61,2.58-3.76,1.72-6.91,5.15-9.45,10.27-2.54,5.13-4.09,11.21-4.64,18.26h-13.27V3.32h159.34v45.32h-13.27c-2.51-12.21-6.03-20.45-10.57-24.72-4.54-4.27-11.78-6.4-21.72-6.4h-13.74v112.49c0,7.28,1.23,12.35,3.7,15.21,2.47,2.86,7.65,4.29,15.56,4.29h4.11v13.03h-87.95v-13.03h3.76c7.98,0,13.17-1.47,15.56-4.4,2.39-2.94,3.58-7.96,3.58-15.09V17.53Z"/>
      <path class="cls-1" d="m1320.86,86.45v39.33c0,7.51.43,12.43,1.29,14.74.86,2.31,3.17,4.23,6.93,5.75s9.47,2.29,17.14,2.29c10.41,0,18.06-1.29,22.96-3.88,4.89-2.58,9.28-7.12,13.15-13.62,3.88-6.5,6.67-13.42,8.4-20.78h13.15l-1.06,52.25h-145.6v-13.03h2.94c7.91,0,13.05-1.47,15.44-4.4,2.39-2.94,3.58-7.96,3.58-15.09V35.61c0-7.28-1.23-12.35-3.7-15.21-2.46-2.86-7.57-4.29-15.32-4.29h-2.94V3.32h135.62l2.35,41.21h-13.15c-2.35-7.2-4.97-12.93-7.87-17.2-2.9-4.27-5.81-7-8.75-8.22-2.94-1.21-7.89-1.82-14.85-1.82h-29.71v54.95h14.79c7.04,0,11.72-1.33,14.03-3.99,2.31-2.66,3.62-7.91,3.93-15.73h13.27v54.01h-13.27c.08-1.02.12-1.76.12-2.23,0-4.54-.96-8.65-2.88-12.33-1.92-3.68-6.83-5.52-14.74-5.52h-15.26Z"/>
    </g>
  </g>
</svg>