<svg id="Layer_2" data-name="Layer 2" viewBox="0 0 948.15 125.61">
  <defs>
    <style>
      .cls-2 {
        fill: none;
        stroke: #000;
        stroke-miterlimit: 10;
        stroke-width: 3px;
      }
    </style>
  </defs>
  <g id="Layer_1-2" data-name="Layer 1">
    <g>
      <path class="cls-2" d="m4.51,90.67c2.12,6.19,5.48,11.68,10.26,16.1,6.55,6.02,14.51,9.02,23.88,9.02,14.86,0,22.12-7.25,22.12-16.45,0-4.78-1.59-8.67-4.6-11.68s-9.38-7.25-19.46-12.38l-9.02-4.78C9.28,61.12,3.09,50.15,3.09,36.53c0-10.08,3.72-18.4,11.32-24.95C22.02,4.86,33.52,1.5,49.09,1.5c9.38,0,16.98.88,22.65,2.83,4.95,1.59,6.37,3.01,6.37,7.25s-1.24,10.44-3.54,19.11h-.88c-2.12-6.55-4.78-11.32-7.96-14.33-4.42-4.42-10.79-6.72-18.93-6.72-16.81,0-23.18,7.61-23.18,16.63,0,4.07,1.42,7.61,4.25,10.97,2.83,3.36,9.02,7.43,18.58,12.21l8.32,4.07c19.82,9.91,27.25,19.82,27.25,33.97,0,22.12-16.1,36.62-45.82,36.62-12.56,0-22.12-1.95-29.02-6.02-3.72-2.12-5.66-4.78-5.66-7.78,0-5.13.71-11.68,2.12-19.64h.88Z"/>
      <path class="cls-2" d="m152.42,124.11c-35.56,0-56.44-19.64-56.44-59.8,0-20.7,5.48-36.27,16.45-46.89,10.97-10.62,25.12-15.92,42.29-15.92,36.8,0,55.91,20.7,55.91,59.62s-21.41,62.99-58.21,62.99Zm1.77-114.47c-19.29,0-29.02,17.52-29.02,52.37,0,19.82,2.3,33.79,6.9,41.75,4.78,7.96,11.85,12.03,21.23,12.03,19.64,0,29.02-14.86,29.02-52.37,0-44.05-11.68-53.79-28.13-53.79Z"/>
      <path class="cls-2" d="m226.2,121.81v-1.06c3.36-1.06,6.37-2.65,9.38-4.78,1.77-1.24,2.65-5.48,2.65-12.38V26.27c0-8.67-.71-14.15-2.12-16.28-1.24-1.95-4.6-3.72-9.91-5.13v-1.06h51.31v1.06c-5.66,1.59-9.2,3.01-10.62,4.6-2.3,2.65-2.65,5.48-2.65,16.63v78.02c0,6.55,1.42,8.85,8.49,8.85h17.87c7.43,0,12.56-1.24,15.22-3.54,2.48-2.12,5.48-7.25,8.85-15.22h1.06c0,.71,0,2.65-.18,6.02-.18,6.55-.53,12.92-.71,15.75-.53,5.13-1.42,5.84-5.48,5.84h-83.16Z"/>
      <path class="cls-2" d="m312.72,3.8h50.42v1.06c-5.31,1.24-8.67,3.01-10.26,5.13-1.42,1.95-2.12,6.02-2.12,12.21v57.32c0,9.55.88,16.63,2.48,21.05,3.36,9.2,11.68,13.8,24.95,13.8,9.38,0,16.45-2.83,21.05-8.32,4.07-5.13,6.19-13.8,6.19-25.65V23.62c0-9.91-1.42-12.74-4.42-15.04-2.48-1.77-5.13-3.01-7.96-3.72v-1.06h34.68v1.06c-2.83.71-5.31,1.95-7.25,3.54-3.18,2.3-4.78,7.25-4.78,15.22v53.61c0,14.51-2.3,24.95-6.9,31.14-7.43,10.44-20.17,15.75-38.04,15.75-21.41,0-35.03-5.84-41.22-17.69-3.18-6.19-4.78-16.1-4.78-29.55V23.26c0-7.43-.88-12.21-2.83-14.15-1.59-1.77-4.6-3.18-9.2-4.25v-1.06Z"/>
      <path class="cls-2" d="m510.35,121.81h-50.6v-1.06c5.49-1.42,8.85-3.18,10.26-5.48,1.24-1.59,1.95-7.08,1.95-16.45V17.78c0-4.07-.88-5.31-4.95-5.31h-5.13c-6.55,0-11.15.53-13.45,1.59-4.07,1.77-8.14,7.43-12.03,17.16h-1.06c-.53-8.32-.88-15.92-.88-23,0-3.54.53-4.42,3.89-4.42h93.06c3.54,0,4.07.71,4.07,4.07,0,6.19-.35,13.98-.88,23.35h-1.06c-4.07-11.5-7.08-15.57-11.85-17.16-2.65-1.06-7.25-1.59-13.8-1.59h-4.95c-4.07,0-5.13,1.24-5.13,5.31v81.03c0,8.67.88,14.33,2.48,16.63,1.59,2.3,4.95,4.07,10.08,5.31v1.06Z"/>
      <path class="cls-2" d="m592.09,121.81h-50.42v-1.06c5.31-1.42,8.67-3.18,10.08-5.48,1.24-1.95,1.95-7.43,1.95-16.45V26.27c0-8.67-.71-13.98-1.95-16.1-1.24-2.12-4.6-3.89-10.08-5.31v-1.06h50.42v1.06c-5.49,1.42-8.85,3.01-10.08,4.78-1.59,1.95-2.3,7.43-2.3,16.45v72.89c0,8.67.71,14.15,2.3,16.45,1.42,2.12,4.78,3.89,10.08,5.31v1.06Z"/>
      <path class="cls-2" d="m664.1,124.11c-35.56,0-56.44-19.64-56.44-59.8,0-20.7,5.49-36.27,16.45-46.89,10.97-10.62,25.12-15.92,42.29-15.92,36.8,0,55.91,20.7,55.91,59.62s-21.41,62.99-58.21,62.99Zm1.77-114.47c-19.29,0-29.02,17.52-29.02,52.37,0,19.82,2.3,33.79,6.9,41.75,4.78,7.96,11.85,12.03,21.23,12.03,19.64,0,29.02-14.86,29.02-52.37,0-44.05-11.68-53.79-28.13-53.79Z"/>
      <path class="cls-2" d="m773.62,121.81h-36.45v-1.06c5.13-1.42,8.49-3.18,10.08-5.31,1.77-1.95,2.65-7.43,2.65-16.45v-35.39c.18-13.98.18-24.59.18-32.02,0-11.85-.71-18.93-1.95-20.88-1.59-2.3-5.13-4.25-10.44-5.84v-1.06h37.51c2.65,0,4.95,1.59,6.9,4.6,26.72,39.28,43.35,64.05,49.54,74.31-.18-19.64-.35-38.75-.88-57.5-.18-7.78-1.06-12.74-2.48-14.68-1.77-2.48-5.13-4.42-9.91-5.66v-1.06h35.38v1.06c-4.95,1.42-8.14,3.18-9.73,5.31-1.77,2.3-2.65,7.78-2.65,16.28v96.6h-14.68c-41.22-62.28-63.69-96.25-67.23-102.09,0,4.95.18,15.22.35,30.79.35,15.39.53,31.14.71,47.24,0,8.32,1.06,13.62,3.01,16.28,1.95,2.12,5.31,3.89,10.08,5.48v1.06Z"/>
      <path class="cls-2" d="m869.16,90.67c2.12,6.19,5.48,11.68,10.26,16.1,6.55,6.02,14.51,9.02,23.88,9.02,14.86,0,22.12-7.25,22.12-16.45,0-4.78-1.59-8.67-4.6-11.68s-9.38-7.25-19.46-12.38l-9.02-4.78c-18.4-9.38-24.59-20.35-24.59-33.97,0-10.08,3.72-18.4,11.32-24.95,7.61-6.72,19.11-10.08,34.68-10.08,9.38,0,16.99.88,22.65,2.83,4.95,1.59,6.37,3.01,6.37,7.25s-1.24,10.44-3.54,19.11h-.88c-2.12-6.55-4.78-11.32-7.96-14.33-4.42-4.42-10.79-6.72-18.93-6.72-16.81,0-23.18,7.61-23.18,16.63,0,4.07,1.42,7.61,4.25,10.97,2.83,3.36,9.02,7.43,18.58,12.21l8.32,4.07c19.82,9.91,27.25,19.82,27.25,33.97,0,22.12-16.1,36.62-45.82,36.62-12.56,0-22.12-1.95-29.02-6.02-3.71-2.12-5.66-4.78-5.66-7.78,0-5.13.71-11.68,2.12-19.64h.88Z"/>
    </g>
  </g>
</svg>