<svg width="277" height="294" viewBox="0 0 277 294" fill="none" xmlns="http://www.w3.org/2000/svg">
<circle opacity="0.8" cx="138.399" cy="138.264" r="137.759" fill="#F7F7F7"/>
<path d="M86.1719 138.775C67.5391 124.775 29.2188 150.325 29.2188 187.075C29.2188 209.825 49.9609 225.575 68.9453 248.325C62.9688 262.325 64.7266 268.975 64.7266 268.975C89.3359 271.075 110.078 272.475 138.203 272.475C161.758 272.475 190.586 271.425 211.68 269.675C211.68 269.675 214.141 255.675 205.352 248.325C224.336 225.575 247.188 209.475 247.188 186.725C247.188 149.975 208.867 124.775 190.234 138.425" stroke="black" stroke-width="2" stroke-linejoin="round"/>
<path d="M138.203 242.024C138.203 232.224 118.164 219.274 118.164 219.274C118.164 219.274 138.203 217.874 138.203 200.024C138.203 218.224 158.242 219.274 158.242 219.274C158.242 219.274 138.203 231.874 138.203 242.024Z" stroke="black" stroke-width="2" stroke-linejoin="round"/>
<path d="M120.977 254.975C79.1406 231.875 71.4062 181.825 71.4062 167.125C71.4062 116.725 148.75 120.575 148.75 173.775C148.75 173.775 146.992 184.275 138.555 184.275C130.117 184.275 127.656 173.775 127.656 173.775C127.656 120.575 205 116.725 205 167.125C205 181.825 195.156 234.675 158.945 254.975" stroke="black" stroke-width="2"/>
<path d="M205.352 247.625C186.016 252.525 163.164 255.325 138.203 255.325C113.594 255.325 87.9297 252.525 68.9453 247.625" stroke="black" stroke-width="2"/>
<path d="M138.203 124.775C147.911 124.775 155.781 117.096 155.781 107.625C155.781 98.1529 147.911 90.4746 138.203 90.4746C128.495 90.4746 120.625 98.1529 120.625 107.625C120.625 117.096 128.495 124.775 138.203 124.775Z" stroke="black" stroke-width="2"/>
</svg>
