<svg width="276" height="277" viewBox="0 0 276 277" fill="none" xmlns="http://www.w3.org/2000/svg">
<circle opacity="0.8" cx="137.765" cy="138.597" r="137.759" fill="white"/>
<g clip-path="url(#clip0_29_684)">
<path d="M103.625 252.858C105.745 252.648 107.855 252.248 109.975 252.238C152.475 252.198 194.975 252.178 237.475 252.248C243.215 252.248 248.385 251.298 252.345 246.708C256.375 242.028 257.625 236.708 255.735 230.878C253.795 224.888 249.715 220.638 243.365 219.888C237.115 219.148 230.745 219.408 224.425 219.208C222.505 219.148 220.585 218.998 218.665 218.888C218.545 218.428 218.435 217.958 218.315 217.498C219.395 217.018 220.455 216.178 221.555 216.118C225.045 215.938 228.555 216.088 232.055 216.028C239.215 215.908 242.475 212.688 242.505 205.648C242.545 196.978 242.465 188.318 242.555 179.648C242.575 178.058 243.145 176.468 243.595 174.248C247.605 179.048 246.675 208.928 242.885 215.648C243.775 216.048 244.615 216.508 245.515 216.808C255.735 220.248 261.035 228.738 259.475 239.218C258.075 248.618 250.075 255.438 239.765 255.648C230.765 255.838 221.765 255.688 212.765 255.688C178.435 255.688 144.095 255.698 109.765 255.668C107.735 255.668 105.695 255.298 103.665 255.108C103.645 254.358 103.635 253.608 103.615 252.868L103.625 252.858Z" fill="black"/>
<path d="M171.535 131.458H204.015C204.015 124.918 204.015 119.318 204.015 113.708C204.015 107.878 203.975 102.058 204.015 96.2275C204.045 92.2875 202.275 90.4775 198.255 90.5175C187.935 90.6175 177.615 90.6175 167.295 90.5175C164.025 90.4875 162.145 91.6775 160.945 94.8475C157.225 104.638 153.195 114.298 149.355 124.048C147.635 128.418 149.125 130.538 153.865 130.898C155.705 131.038 157.525 131.408 159.205 132.548C155.035 134.118 150.895 135.248 147.315 131.828C144.105 128.748 145.195 125.168 146.625 121.638C150.425 112.238 154.285 102.858 157.925 93.3975C159.575 89.0975 162.375 87.0875 166.975 87.1275C177.465 87.2175 187.945 87.0975 198.435 87.1775C204.535 87.2275 207.225 89.9675 207.255 96.0875C207.315 107.238 207.245 118.388 207.295 129.548C207.305 132.088 207.265 134.108 203.745 134.058C194.095 133.918 184.435 134.038 174.785 133.968C173.655 133.968 172.535 133.408 171.405 133.108C171.445 132.558 171.495 132.018 171.535 131.468V131.458Z" fill="black"/>
<path d="M90.165 253.197C89.745 254.207 89.705 254.657 89.495 254.767C78.495 260.387 60.725 253.517 56.705 242.117C53.715 233.647 57.065 223.657 65.055 219.157C68.395 217.277 70.205 215.447 69.625 211.527C69.475 210.497 70.235 209.327 70.585 208.217C71.105 208.217 71.615 208.217 72.135 208.227C72.585 210.637 73.035 213.047 73.725 216.707C101.865 216.707 130.265 216.707 158.665 216.757C158.835 216.757 158.995 217.577 159.425 218.707C157.105 218.887 155.085 219.187 153.055 219.187C127.895 219.217 102.735 219.157 77.565 219.237C66.215 219.277 58.825 226.257 59.095 236.357C59.325 244.767 65.755 251.547 74.195 252.067C78.015 252.297 81.855 252.107 85.685 252.267C87.135 252.327 88.575 252.847 90.155 253.187L90.165 253.197Z" fill="black"/>
<path d="M47.5951 175.028C45.3651 175.168 43.9351 175.258 42.3651 175.348C41.7751 180.348 41.2251 185.078 40.6251 189.788C40.6051 189.978 40.0751 190.108 38.9851 190.698C38.6851 189.198 38.2651 187.968 38.2451 186.728C38.1951 184.068 38.3851 181.398 38.4251 178.738C38.5351 171.928 38.5351 172.218 45.2251 171.848C49.9651 171.578 51.8151 172.958 51.3851 177.888C50.9851 182.518 51.3351 187.208 51.3651 191.868C51.3651 192.188 51.5451 192.498 51.8551 193.488H122.675C122.785 194.278 122.895 195.058 122.995 195.848C121.285 196.178 119.575 196.808 117.865 196.808C97.7051 196.878 77.5451 196.848 57.3851 196.848C55.5751 196.848 53.7651 196.848 51.8351 196.848C50.8351 199.688 51.1451 201.188 54.3651 201.128C59.0251 201.038 63.6951 201.048 68.3551 201.148C69.8251 201.178 71.2751 201.628 72.7351 201.888C72.7151 202.568 72.7051 203.238 72.6851 203.918H50.8151V222.458C50.0751 222.438 49.3451 222.418 48.6051 222.408C46.8951 206.858 48.7451 191.108 47.5851 175.028H47.5951Z" fill="black"/>
<path d="M243.255 165.148C243.005 163.638 242.595 162.138 242.545 160.628C242.435 157.298 242.565 153.968 242.495 150.638C242.375 144.828 239.095 141.238 233.225 141.108C225.075 140.928 216.875 140.748 208.755 141.288C197.715 142.028 188.135 146.598 180.535 154.678C170.195 165.668 157.585 170.728 142.585 170.378C134.925 170.198 127.265 170.378 119.605 170.318C117.905 170.308 116.205 169.978 114.505 169.798C114.425 169.258 114.345 168.718 114.255 168.188C115.715 167.788 117.175 167.068 118.635 167.048C127.465 166.938 136.285 166.938 145.115 167.008C157.635 167.098 168.275 162.498 176.845 153.598C187.275 142.758 199.745 137.398 214.755 137.718C220.745 137.848 226.745 137.658 232.745 137.768C240.905 137.918 245.725 142.648 246.075 150.818C246.225 154.308 246.185 157.818 246.075 161.308C246.035 162.618 245.525 163.918 245.235 165.218C244.585 165.198 243.935 165.178 243.275 165.158L243.255 165.148Z" fill="black"/>
<path d="M37.9952 203.838C37.4852 221.008 32.5052 236.818 23.5052 251.908H47.5452C47.8652 246.528 48.1752 241.198 48.4852 235.858C49.2652 235.868 50.0552 235.888 50.8352 235.898C50.9852 238.318 51.2552 240.728 51.2652 243.148C51.2918 251.508 47.1285 255.688 38.7752 255.688C32.9552 255.688 27.1252 255.738 21.3052 255.648C19.8052 255.628 18.3152 255.188 15.7852 254.758C30.2552 240.048 32.0852 221.128 37.9952 203.828V203.838Z" fill="black"/>
<path d="M196.665 75.7774C200.215 72.7874 218.285 73.0974 220.835 76.5274C222.115 78.2474 222.865 80.7774 222.885 82.9574C223.055 98.5874 222.995 114.207 222.945 129.837C222.945 131.187 222.445 132.537 222.185 133.877C221.605 133.907 221.035 133.937 220.455 133.967C220.115 132.307 219.495 130.647 219.485 128.987C219.405 114.357 219.445 99.7274 219.435 85.0974C219.435 77.7974 218.945 77.3174 211.425 77.2874C206.535 77.2674 201.655 77.2874 196.765 77.2874C196.735 76.7774 196.705 76.2774 196.675 75.7674L196.665 75.7774Z" fill="black"/>
<path d="M126.965 162.887C125.845 154.827 125.665 146.537 126.845 138.537C128.215 129.227 142.465 100.927 145.815 99.8374C145.275 101.757 144.995 103.287 144.415 104.687C140.995 112.967 137.845 121.387 133.925 129.427C130.465 136.517 128.975 143.727 129.515 151.537C129.775 155.257 129.555 159.007 129.555 162.747C128.685 162.797 127.815 162.847 126.955 162.897L126.965 162.887Z" fill="black"/>
<path d="M243.605 226.157C241.625 226.777 240.245 227.317 238.805 227.657C234.165 228.757 231.495 232.607 232.245 237.257C232.955 241.717 237.015 244.627 241.725 244.067C246.165 243.537 249.245 239.557 248.855 234.847C248.725 233.327 248.575 231.817 248.375 229.737C252.885 232.627 253.395 237.427 250.425 242.137C246.915 247.717 239.275 249.237 233.795 245.447C228.515 241.807 227.155 234.387 230.795 229.097C233.855 224.637 239.175 223.087 243.605 226.157Z" fill="black"/>
<path d="M194.385 231.017C182.655 227.067 179.815 227.317 177.425 232.157C175.615 235.837 176.835 240.457 180.235 242.757C184.375 245.557 188.205 244.327 194.905 237.477C195.145 239.137 195.685 240.287 195.375 241.117C193.775 245.297 188.235 248.137 183.435 247.447C178.045 246.677 173.925 242.487 173.365 237.227C172.795 231.787 175.695 226.887 180.695 224.887C185.235 223.067 191.265 224.517 193.805 228.137C194.205 228.707 194.125 229.607 194.395 231.017H194.385Z" fill="black"/>
<path d="M73.6654 226.467C68.9254 229.997 64.5554 234.127 68.5054 239.997C69.9954 242.207 74.1954 244.197 76.7554 243.777C85.2154 242.417 84.5054 235.697 82.3454 228.577C87.4754 231.447 88.4254 236.317 86.0054 241.127C83.1354 246.817 76.0054 249.167 70.2254 246.317C64.6554 243.567 62.2254 236.827 64.7254 231.037C66.5454 226.817 69.7854 224.927 73.6654 226.477V226.467Z" fill="black"/>
<path d="M120.345 243.277C115.875 239.477 115.205 234.147 117.845 229.777C120.725 225.017 126.515 222.897 131.685 224.697C137.425 226.697 140.355 231.807 139.385 238.107C138.605 243.187 134.775 246.547 128.295 246.637C129.995 245.047 130.865 244.007 131.945 243.277C136.155 240.387 137.515 236.187 135.465 232.097C133.505 228.197 129.035 226.477 124.845 228.017C120.755 229.517 118.935 233.667 120.045 238.677C120.315 239.907 120.225 241.217 120.345 243.277Z" fill="black"/>
<path d="M148.515 89.9172C147.995 80.5472 153.835 74.0072 162.715 73.9972C169.195 73.9972 175.685 73.9572 182.165 74.0272C183.625 74.0472 185.075 74.4572 186.535 74.6972C186.555 75.2772 186.565 75.8472 186.585 76.4272C185.005 76.7072 183.435 77.2172 181.855 77.2472C175.035 77.3372 168.215 77.3972 161.405 77.2472C157.555 77.1572 155.225 78.5672 153.925 82.3272C152.915 85.2472 151.175 87.9172 149.765 90.6972C149.345 90.4372 148.925 90.1772 148.505 89.9272L148.515 89.9172Z" fill="black"/>
<path d="M103.675 170.277C86.9252 167.937 78.9052 178.627 70.9252 189.857C68.9252 187.197 68.7552 184.697 71.1952 182.457C76.0752 177.967 80.9452 173.427 86.0652 169.217C90.1452 165.857 99.9752 166.007 103.675 170.277Z" fill="black"/>
<path d="M169.555 218.437C172.915 215.257 199.545 215.327 202.645 218.457C191.645 219.347 180.635 219.207 169.555 218.437Z" fill="black"/>
<path d="M143.925 194.357C139.495 197.677 133.875 197.527 130.795 194.357H143.925Z" fill="black"/>
</g>
<defs>
<clipPath id="clip0_29_684">
<rect width="243.96" height="183.04" fill="white" transform="translate(15.7852 73.7275)"/>
</clipPath>
</defs>
</svg>
