<svg width="277" height="277" viewBox="0 0 277 277" fill="none" xmlns="http://www.w3.org/2000/svg">
<circle opacity="0.8" cx="138.696" cy="138.454" r="137.759" fill="white"/>
<path d="M190.635 269.231H86.7598" stroke="#222222" stroke-width="2" stroke-linecap="round"/>
<path d="M139.325 245.981C139.325 249.191 139.044 251.793 138.697 251.793C138.35 251.793 138.068 249.191 138.068 245.981H139.325ZM138.068 245.981V216.918H139.325V245.981H138.068Z" fill="#222222"/>
<path d="M121.385 141.356H156.01" stroke="#222222" stroke-width="2" stroke-linecap="round"/>
<path d="M63.6761 199.481C63.6761 199.481 40.5928 182.043 40.5928 152.981C40.5928 144.084 40.5928 136.276 40.5928 129.725C40.5928 116.884 50.9275 106.481 63.6761 106.481C76.4247 106.481 86.7594 116.89 86.7594 129.731V141.356" stroke="#222222" stroke-width="2" stroke-linecap="round"/>
<path d="M213.718 199.481C213.718 199.481 236.801 182.043 236.801 152.981C236.801 144.084 236.801 136.276 236.801 129.725C236.801 116.884 226.467 106.481 213.718 106.481C200.969 106.481 190.635 116.89 190.635 129.731V141.356" stroke="#222222" stroke-width="2" stroke-linecap="round"/>
<path d="M190.635 162.97V118.106C190.635 105.265 180.3 94.856 167.551 94.856H109.843C97.0945 94.856 86.7598 105.265 86.7598 118.106V162.97C86.7598 178.518 94.4743 193.036 107.318 201.661L132.295 218.432C136.172 221.035 141.223 221.035 145.099 218.432L170.077 201.661C182.92 193.036 190.635 178.518 190.635 162.97Z" stroke="#33363F" stroke-width="2"/>
</svg>
