<svg width="278" height="277" viewBox="0 0 278 277" fill="none" xmlns="http://www.w3.org/2000/svg">
<circle opacity="0.8" cx="139.399" cy="138.264" r="137.759" fill="#F7F7F7"/>
<path d="M191.336 269.041H87.4609" stroke="#222222" stroke-width="2" stroke-linecap="round"/>
<path d="M140.03 245.791C140.03 249.001 139.749 251.604 139.402 251.604C139.055 251.604 138.773 249.001 138.773 245.791H140.03ZM138.773 245.791V216.729H140.03V245.791H138.773Z" fill="#222222"/>
<path d="M122.086 141.166H156.711" stroke="#222222" stroke-width="2" stroke-linecap="round"/>
<path d="M64.3802 199.291C64.3802 199.291 41.2969 181.854 41.2969 152.791C41.2969 143.894 41.2969 136.086 41.2969 129.535C41.2969 116.694 51.6316 106.291 64.3802 106.291C77.1288 106.291 87.4635 116.7 87.4635 129.541V141.166" stroke="#222222" stroke-width="2" stroke-linecap="round"/>
<path d="M214.419 199.291C214.419 199.291 237.503 181.854 237.503 152.791C237.503 143.894 237.503 136.086 237.503 129.535C237.503 116.694 227.168 106.291 214.419 106.291C201.67 106.291 191.336 116.7 191.336 129.541V141.166" stroke="#222222" stroke-width="2" stroke-linecap="round"/>
<path d="M191.336 162.78V117.916C191.336 105.075 181.002 94.666 168.253 94.666H110.544C97.7957 94.666 87.4609 105.075 87.4609 117.916V162.78C87.4609 178.328 95.1755 192.846 108.019 201.471L132.996 218.242C136.873 220.845 141.924 220.845 145.801 218.242L170.778 201.471C183.621 192.846 191.336 178.328 191.336 162.78Z" stroke="#33363F" stroke-width="2"/>
</svg>
