<svg width="277" height="294" viewBox="0 0 277 294" fill="none" xmlns="http://www.w3.org/2000/svg">
<circle opacity="0.8" cx="138.697" cy="138.454" r="137.759" fill="white"/>
<path d="M86.4688 138.965C67.8359 124.965 29.5156 150.515 29.5156 187.265C29.5156 210.015 50.2578 225.765 69.2422 248.515C63.2656 262.515 65.0234 269.165 65.0234 269.165C89.6328 271.265 110.375 272.665 138.5 272.665C162.055 272.665 190.883 271.615 211.977 269.865C211.977 269.865 214.437 255.865 205.648 248.515C224.633 225.765 247.484 209.665 247.484 186.915C247.484 150.165 209.164 124.965 190.531 138.615" stroke="black" stroke-width="2" stroke-linejoin="round"/>
<path d="M138.5 242.214C138.5 232.414 118.461 219.464 118.461 219.464C118.461 219.464 138.5 218.064 138.5 200.214C138.5 218.414 158.539 219.464 158.539 219.464C158.539 219.464 138.5 232.064 138.5 242.214Z" stroke="black" stroke-width="2" stroke-linejoin="round"/>
<path d="M121.273 255.165C79.4375 232.065 71.7031 182.015 71.7031 167.315C71.7031 116.915 149.047 120.765 149.047 173.965C149.047 173.965 147.289 184.465 138.852 184.465C130.414 184.465 127.953 173.965 127.953 173.965C127.953 120.765 205.297 116.915 205.297 167.315C205.297 182.015 195.453 234.865 159.242 255.165" stroke="black" stroke-width="2"/>
<path d="M205.648 247.814C186.312 252.714 163.461 255.514 138.5 255.514C113.891 255.514 88.2266 252.714 69.2422 247.814" stroke="black" stroke-width="2"/>
<path d="M138.5 124.965C148.208 124.965 156.078 117.286 156.078 107.815C156.078 98.3429 148.208 90.6646 138.5 90.6646C128.792 90.6646 120.922 98.3429 120.922 107.815C120.922 117.286 128.792 124.965 138.5 124.965Z" stroke="black" stroke-width="2"/>
</svg>
