<svg width="276" height="277" viewBox="0 0 276 277" fill="none" xmlns="http://www.w3.org/2000/svg">
<circle opacity="0.8" cx="137.759" cy="138.598" r="137.759" fill="white"/>
<g clip-path="url(#clip0_29_664)">
<path d="M233.415 255.844H43.1021C41.8397 255.844 40.8184 254.822 40.8184 253.56V240.873C40.8184 239.61 41.8397 238.589 43.1021 238.589H47.1621V230.469H43.1021C41.8397 230.469 40.8184 229.447 40.8184 228.185V215.498C40.8184 214.235 41.8397 213.214 43.1021 213.214H80.2194L128.679 164.754C121.727 161.239 116.943 154.027 116.943 145.716C116.943 134.735 125.292 125.664 135.975 124.522V63.2476H140.542V126.685C140.542 127.947 139.521 128.969 138.258 128.969C129.022 128.969 121.511 136.486 121.511 145.716C121.511 152.79 125.92 158.854 132.13 161.303L136.647 156.792C137.542 155.898 138.982 155.898 139.876 156.792L144.393 161.303C150.603 158.854 155.006 152.79 155.006 145.716H159.58C159.58 154.027 154.797 161.239 147.837 164.754L196.304 213.214H233.415C234.677 213.214 235.698 214.235 235.698 215.498V228.185C235.698 229.447 234.677 230.469 233.415 230.469H229.355V238.582H233.415C234.677 238.582 235.698 239.604 235.698 240.866V253.554C235.698 254.822 234.677 255.844 233.415 255.844ZM45.3859 251.276H231.131V243.156H45.3859V251.276ZM51.7296 238.589H224.787V230.469H51.7296V238.589ZM227.071 225.901H231.131V217.781H45.3859V225.895L227.071 225.901ZM86.6773 213.214H189.839L143.099 166.479C139.99 167.209 136.527 167.209 133.418 166.479L86.6773 213.214ZM137.446 162.445C137.986 162.476 138.531 162.476 139.07 162.445L138.258 161.633L137.446 162.445Z" fill="black"/>
</g>
<defs>
<clipPath id="clip0_29_664">
<rect width="203" height="203" fill="white" transform="translate(36.7588 56.9038)"/>
</clipPath>
</defs>
</svg>
