<svg width="276" height="282" viewBox="0 0 276 282" fill="none" xmlns="http://www.w3.org/2000/svg">
<circle opacity="0.8" cx="137.883" cy="138.598" r="137.759" fill="white"/>
<path d="M62.6323 259.904C74.7136 259.904 84.5073 250.124 84.5073 238.06C84.5073 225.996 74.7136 216.216 62.6323 216.216C50.5511 216.216 40.7573 225.996 40.7573 238.06C40.7573 250.124 50.5511 259.904 62.6323 259.904Z" stroke="black" stroke-width="4" stroke-miterlimit="10" stroke-linecap="round" stroke-linejoin="round"/>
<path d="M196.799 141.948C188.049 124.473 171.278 106.269 148.674 91.7069C126.07 77.1444 102.736 70.5913 82.3198 70.5913L42.9448 133.21C51.6948 150.685 68.4657 168.888 91.0698 183.451C113.674 198.013 137.736 204.566 157.424 204.566L196.799 141.948Z" stroke="black" stroke-width="4" stroke-miterlimit="10" stroke-linecap="round" stroke-linejoin="round"/>
<path d="M122.424 85.8818L75.0283 162.335" stroke="black" stroke-width="4" stroke-miterlimit="10" stroke-linecap="round" stroke-linejoin="round"/>
<path d="M163.257 198.013L230.341 259.904" stroke="black" stroke-width="4" stroke-miterlimit="10" stroke-linecap="round" stroke-linejoin="round"/>
<path d="M62.6323 238.06L105.653 190.732" stroke="black" stroke-width="4" stroke-miterlimit="10" stroke-linecap="round" stroke-linejoin="round"/>
<path d="M77.2158 223.498H161.07C180.757 223.498 198.987 212.576 208.466 194.373H230.341" stroke="black" stroke-width="4" stroke-miterlimit="10" stroke-linecap="round" stroke-linejoin="round"/>
</svg>
