<svg width="32" height="61" viewBox="0 0 32 61" fill="none" xmlns="http://www.w3.org/2000/svg">
<path fill-rule="evenodd" clip-rule="evenodd" d="M29.2188 45.4287V16.0576C29.2188 8.7571 23.3005 2.83887 16 2.83887C8.69949 2.83887 2.78125 8.7571 2.78125 16.0576V45.4287C2.78125 52.7292 8.69949 58.6475 16 58.6475C23.3005 58.6475 29.2188 52.7292 29.2188 45.4287ZM16 0.838867C7.59492 0.838867 0.78125 7.65253 0.78125 16.0576V45.4287C0.78125 53.8338 7.59492 60.6475 16 60.6475C24.4051 60.6475 31.2188 53.8338 31.2188 45.4287V16.0576C31.2188 7.65253 24.4051 0.838867 16 0.838867Z" fill="black"/>
<path d="M26.9043 46.5396C26.9043 52.5624 22.0218 57.4448 15.999 57.4448C9.97621 57.4448 5.09375 52.5624 5.09375 46.5396C5.09375 40.5167 9.97621 35.6343 15.999 35.6343C22.0218 35.6343 26.9043 40.5167 26.9043 46.5396Z" fill="black"/>
</svg>
