<svg width="28" height="28" viewBox="0 0 28 28" fill="none" xmlns="http://www.w3.org/2000/svg">
<g id="Group 18">
<circle id="Ellipse 15" cx="14.0396" cy="13.9736" r="13.9487" transform="rotate(90 14.0396 13.9736)" fill="white"/>
<path id="Arrow 2" d="M7.93115 13.2236C7.51694 13.2236 7.18115 13.5594 7.18115 13.9736C7.18115 14.3878 7.51694 14.7236 7.93115 14.7236L7.93115 13.2236ZM20.6786 14.504C20.9715 14.2111 20.9715 13.7362 20.6786 13.4433L15.9057 8.67033C15.6128 8.37744 15.1379 8.37744 14.845 8.67033C14.5521 8.96323 14.5521 9.4381 14.845 9.73099L19.0877 13.9736L14.845 18.2163C14.5521 18.5092 14.5521 18.984 14.845 19.2769C15.1379 19.5698 15.6128 19.5698 15.9057 19.2769L20.6786 14.504ZM7.93115 14.7236L20.1483 14.7236L20.1483 13.2236L7.93115 13.2236L7.93115 14.7236Z" fill="black"/>
</g>
</svg>
