<svg width="40" height="40" viewBox="0 0 40 40" fill="none" xmlns="http://www.w3.org/2000/svg">
<g id="Group 13">
<circle id="Ellipse 15" cx="20.3328" cy="20.1277" r="19.6668" fill="white"/>
<path id="Arrow 2" d="M19.583 28.7402C19.583 29.1544 19.9188 29.4902 20.333 29.4902C20.7472 29.4902 21.083 29.1544 21.083 28.7402L19.583 28.7402ZM20.8633 10.9844C20.5704 10.6915 20.0956 10.6915 19.8027 10.9844L15.0297 15.7574C14.7368 16.0503 14.7368 16.5252 15.0297 16.8181C15.3226 17.111 15.7975 17.111 16.0904 16.8181L20.333 12.5754L24.5756 16.8181C24.8685 17.111 25.3434 17.111 25.6363 16.8181C25.9292 16.5252 25.9292 16.0503 25.6363 15.7574L20.8633 10.9844ZM21.083 28.7402L21.083 11.5148L19.583 11.5148L19.583 28.7402L21.083 28.7402Z" fill="black"/>
</g>
</svg>
