<svg width="277" height="277" viewBox="0 0 277 277" fill="none" xmlns="http://www.w3.org/2000/svg">
<circle cx="138.504" cy="138.705" r="137.759" fill="#FAFAFA"/>
<g clip-path="url(#clip0_83_1851)">
<path d="M234.16 270.95H43.8472C42.5848 270.95 41.5635 269.929 41.5635 268.667V255.979C41.5635 254.717 42.5848 253.695 43.8472 253.695H47.9072V245.575H43.8472C42.5848 245.575 41.5635 244.554 41.5635 243.292V230.604C41.5635 229.342 42.5848 228.32 43.8472 228.32H80.9645L129.424 179.86C122.472 176.346 117.688 169.133 117.688 160.823C117.688 149.842 126.037 140.77 136.72 139.628V78.354H141.287V141.792C141.287 143.054 140.266 144.075 139.003 144.075C129.767 144.075 122.256 151.593 122.256 160.823C122.256 167.896 126.665 173.961 132.875 176.409L137.392 171.899C138.287 171.004 139.727 171.004 140.621 171.899L145.138 176.409C151.348 173.961 155.751 167.896 155.751 160.823H160.325C160.325 169.133 155.542 176.346 148.583 179.86L197.049 228.32H234.16C235.422 228.32 236.443 229.342 236.443 230.604V243.292C236.443 244.554 235.422 245.575 234.16 245.575H230.1V253.689H234.16C235.422 253.689 236.443 254.71 236.443 255.973V268.66C236.443 269.929 235.422 270.95 234.16 270.95ZM46.131 266.383H231.876V258.263H46.131V266.383ZM52.4747 253.695H225.532V245.575H52.4747V253.695ZM227.816 241.008H231.876V232.888H46.131V241.001L227.816 241.008ZM87.4224 228.32H190.585L143.844 181.586C140.735 182.315 137.272 182.315 134.163 181.586L87.4224 228.32ZM138.191 177.551C138.731 177.583 139.276 177.583 139.815 177.551L139.003 176.739L138.191 177.551Z" fill="black"/>
</g>
<defs>
<clipPath id="clip0_83_1851">
<rect width="203" height="203" fill="white" transform="translate(37.5039 72.0103)"/>
</clipPath>
</defs>
</svg>
