<svg width="277" height="277" viewBox="0 0 277 277" fill="none" xmlns="http://www.w3.org/2000/svg">
<circle cx="138.527" cy="138.705" r="137.759" fill="#FAFAFA"/>
<g clip-path="url(#clip0_83_1865)">
<path d="M101.364 272.553C103.484 272.343 105.594 271.943 107.714 271.933C150.214 271.893 192.714 271.873 235.214 271.943C240.954 271.943 246.124 270.993 250.084 266.403C254.114 261.723 255.364 256.403 253.474 250.573C251.534 244.583 247.454 240.333 241.104 239.583C234.854 238.843 228.484 239.103 222.164 238.903C220.244 238.843 218.324 238.693 216.404 238.583C216.284 238.123 216.174 237.653 216.054 237.193C217.134 236.713 218.194 235.873 219.294 235.813C222.784 235.633 226.294 235.783 229.794 235.723C236.954 235.603 240.214 232.383 240.244 225.343C240.284 216.673 240.204 208.013 240.294 199.343C240.314 197.753 240.884 196.163 241.334 193.943C245.344 198.743 244.414 228.623 240.624 235.343C241.514 235.743 242.354 236.203 243.254 236.503C253.474 239.943 258.774 248.433 257.214 258.913C255.814 268.313 247.814 275.133 237.504 275.343C228.504 275.533 219.504 275.383 210.504 275.383C176.174 275.383 141.834 275.393 107.504 275.363C105.474 275.363 103.434 274.993 101.404 274.803C101.384 274.053 101.374 273.303 101.354 272.563L101.364 272.553Z" fill="black"/>
<path d="M169.274 151.153H201.754C201.754 144.613 201.754 139.013 201.754 133.403C201.754 127.573 201.714 121.753 201.754 115.923C201.784 111.983 200.014 110.173 195.994 110.213C185.674 110.313 175.354 110.313 165.034 110.213C161.764 110.183 159.884 111.373 158.684 114.543C154.964 124.333 150.934 133.993 147.094 143.743C145.374 148.113 146.864 150.233 151.604 150.593C153.444 150.733 155.264 151.103 156.944 152.243C152.774 153.813 148.634 154.943 145.054 151.523C141.844 148.443 142.934 144.863 144.364 141.333C148.164 131.933 152.024 122.553 155.664 113.093C157.314 108.793 160.114 106.783 164.714 106.823C175.204 106.913 185.684 106.793 196.174 106.873C202.274 106.923 204.964 109.663 204.994 115.783C205.054 126.933 204.984 138.083 205.034 149.243C205.044 151.783 205.004 153.803 201.484 153.753C191.834 153.613 182.174 153.733 172.524 153.663C171.394 153.663 170.274 153.103 169.144 152.803C169.184 152.253 169.234 151.713 169.274 151.163V151.153Z" fill="black"/>
<path d="M87.904 272.893C87.484 273.903 87.444 274.353 87.234 274.463C76.234 280.083 58.464 273.213 54.444 261.813C51.454 253.343 54.804 243.353 62.794 238.853C66.134 236.973 67.944 235.143 67.364 231.223C67.214 230.193 67.974 229.023 68.324 227.913C68.844 227.913 69.354 227.913 69.874 227.923C70.324 230.333 70.774 232.743 71.464 236.403C99.604 236.403 128.004 236.403 156.404 236.453C156.574 236.453 156.734 237.273 157.164 238.403C154.844 238.583 152.824 238.883 150.794 238.883C125.634 238.913 100.474 238.853 75.304 238.933C63.954 238.973 56.564 245.953 56.834 256.053C57.064 264.463 63.494 271.243 71.934 271.763C75.754 271.993 79.594 271.803 83.424 271.963C84.874 272.023 86.314 272.543 87.894 272.883L87.904 272.893Z" fill="black"/>
<path d="M45.3339 194.723C43.1039 194.863 41.6739 194.953 40.1039 195.043C39.5139 200.043 38.9639 204.773 38.3639 209.483C38.3439 209.673 37.8139 209.803 36.7239 210.393C36.4239 208.893 36.0039 207.663 35.9839 206.423C35.9339 203.763 36.1239 201.093 36.1639 198.433C36.2739 191.623 36.2739 191.913 42.9639 191.543C47.7039 191.273 49.5539 192.653 49.1239 197.583C48.7239 202.213 49.0739 206.903 49.1039 211.563C49.1039 211.883 49.2839 212.193 49.5939 213.183H120.414C120.524 213.973 120.634 214.753 120.734 215.543C119.024 215.873 117.314 216.503 115.604 216.503C95.4439 216.573 75.2839 216.543 55.1239 216.543C53.3139 216.543 51.5039 216.543 49.5739 216.543C48.5739 219.383 48.8839 220.883 52.1039 220.823C56.7639 220.733 61.4339 220.743 66.0939 220.843C67.5639 220.873 69.0139 221.323 70.4739 221.583C70.4539 222.263 70.4439 222.933 70.4239 223.613H48.5539V242.153C47.8139 242.133 47.0839 242.113 46.3439 242.103C44.6339 226.553 46.4839 210.803 45.3239 194.723H45.3339Z" fill="black"/>
<path d="M240.994 184.843C240.744 183.333 240.334 181.833 240.284 180.323C240.174 176.993 240.304 173.663 240.234 170.333C240.114 164.523 236.834 160.933 230.964 160.803C222.814 160.623 214.614 160.443 206.494 160.983C195.454 161.723 185.874 166.293 178.274 174.373C167.934 185.363 155.324 190.423 140.324 190.073C132.664 189.893 125.004 190.073 117.344 190.013C115.644 190.003 113.944 189.673 112.244 189.493C112.164 188.953 112.084 188.413 111.994 187.883C113.454 187.483 114.914 186.763 116.374 186.743C125.204 186.633 134.024 186.633 142.854 186.703C155.374 186.793 166.014 182.193 174.584 173.293C185.014 162.453 197.484 157.093 212.494 157.413C218.484 157.543 224.484 157.353 230.484 157.463C238.644 157.613 243.464 162.343 243.814 170.513C243.964 174.003 243.924 177.513 243.814 181.003C243.774 182.313 243.264 183.613 242.974 184.913C242.324 184.893 241.674 184.873 241.014 184.853L240.994 184.843Z" fill="black"/>
<path d="M35.7339 223.533C35.2239 240.703 30.2439 256.513 21.2439 271.603H45.2839C45.6039 266.223 45.9139 260.893 46.2239 255.553C47.0039 255.563 47.7939 255.583 48.5739 255.593C48.7239 258.013 48.9939 260.423 49.0039 262.843C49.0306 271.203 44.8673 275.383 36.5139 275.383C30.6939 275.383 24.8639 275.433 19.0439 275.343C17.5439 275.323 16.0539 274.883 13.5239 274.453C27.9939 259.743 29.8239 240.823 35.7339 223.523V223.533Z" fill="black"/>
<path d="M194.404 95.4732C197.954 92.4832 216.024 92.7932 218.574 96.2232C219.854 97.9432 220.604 100.473 220.624 102.653C220.794 118.283 220.734 133.903 220.684 149.533C220.684 150.883 220.184 152.233 219.924 153.573C219.344 153.603 218.774 153.633 218.194 153.663C217.854 152.003 217.234 150.343 217.224 148.683C217.144 134.053 217.184 119.423 217.174 104.793C217.174 97.4932 216.684 97.0132 209.164 96.9832C204.274 96.9632 199.394 96.9832 194.504 96.9832C194.474 96.4732 194.444 95.9732 194.414 95.4632L194.404 95.4732Z" fill="black"/>
<path d="M124.704 182.583C123.584 174.523 123.404 166.233 124.584 158.233C125.954 148.923 140.204 120.623 143.554 119.533C143.014 121.453 142.734 122.983 142.154 124.383C138.734 132.663 135.584 141.083 131.664 149.123C128.204 156.213 126.714 163.423 127.254 171.233C127.514 174.953 127.294 178.703 127.294 182.443C126.424 182.493 125.554 182.543 124.694 182.593L124.704 182.583Z" fill="black"/>
<path d="M241.344 245.853C239.364 246.473 237.984 247.013 236.544 247.353C231.904 248.453 229.234 252.303 229.984 256.953C230.694 261.413 234.754 264.323 239.464 263.763C243.904 263.233 246.984 259.253 246.594 254.543C246.464 253.023 246.314 251.513 246.114 249.433C250.624 252.323 251.134 257.123 248.164 261.833C244.654 267.413 237.014 268.933 231.534 265.143C226.254 261.503 224.894 254.083 228.534 248.793C231.594 244.333 236.914 242.783 241.344 245.853Z" fill="black"/>
<path d="M192.124 250.713C180.394 246.763 177.554 247.013 175.164 251.853C173.354 255.533 174.574 260.153 177.974 262.453C182.114 265.253 185.944 264.023 192.644 257.173C192.884 258.833 193.424 259.983 193.114 260.813C191.514 264.993 185.974 267.833 181.174 267.143C175.784 266.373 171.664 262.183 171.104 256.923C170.534 251.483 173.434 246.583 178.434 244.583C182.974 242.763 189.004 244.213 191.544 247.833C191.944 248.403 191.864 249.303 192.134 250.713H192.124Z" fill="black"/>
<path d="M71.4039 246.163C66.6639 249.693 62.2939 253.823 66.2439 259.693C67.7339 261.903 71.9339 263.893 74.4939 263.473C82.9539 262.113 82.2439 255.393 80.0839 248.273C85.2139 251.143 86.1639 256.013 83.7439 260.823C80.8739 266.513 73.7439 268.863 67.9639 266.013C62.3939 263.263 59.9639 256.523 62.4639 250.733C64.2839 246.513 67.5239 244.623 71.4039 246.173V246.163Z" fill="black"/>
<path d="M118.084 262.973C113.614 259.173 112.944 253.843 115.584 249.473C118.464 244.713 124.254 242.593 129.424 244.393C135.164 246.393 138.094 251.503 137.124 257.803C136.344 262.883 132.514 266.243 126.034 266.333C127.734 264.743 128.604 263.703 129.684 262.973C133.894 260.083 135.254 255.883 133.204 251.793C131.244 247.893 126.774 246.173 122.584 247.713C118.494 249.213 116.674 253.363 117.784 258.373C118.054 259.603 117.964 260.913 118.084 262.973Z" fill="black"/>
<path d="M146.254 109.613C145.734 100.243 151.574 93.703 160.454 93.693C166.934 93.693 173.424 93.653 179.904 93.723C181.364 93.743 182.814 94.153 184.274 94.393C184.294 94.973 184.304 95.543 184.324 96.123C182.744 96.403 181.174 96.913 179.594 96.943C172.774 97.033 165.954 97.093 159.144 96.943C155.294 96.853 152.964 98.263 151.664 102.023C150.654 104.943 148.914 107.613 147.504 110.393C147.084 110.133 146.664 109.873 146.244 109.623L146.254 109.613Z" fill="black"/>
<path d="M101.414 189.973C84.664 187.633 76.644 198.323 68.664 209.553C66.664 206.893 66.494 204.393 68.934 202.153C73.814 197.663 78.684 193.123 83.804 188.913C87.884 185.553 97.714 185.703 101.414 189.973Z" fill="black"/>
<path d="M167.294 238.133C170.654 234.953 197.284 235.023 200.384 238.153C189.384 239.043 178.374 238.903 167.294 238.133Z" fill="black"/>
<path d="M141.664 214.053C137.234 217.373 131.614 217.223 128.534 214.053H141.664Z" fill="black"/>
</g>
<defs>
<clipPath id="clip0_83_1865">
<rect width="243.96" height="183.04" fill="white" transform="translate(13.5239 93.4233)"/>
</clipPath>
</defs>
</svg>
