<svg width="277" height="277" viewBox="0 0 277 277" fill="none" xmlns="http://www.w3.org/2000/svg">
<circle opacity="0.8" cx="138.504" cy="138.705" r="137.759" fill="#FAFAFA"/>
<path d="M63.7539 253.167C75.8351 253.167 85.6289 243.387 85.6289 231.323C85.6289 219.259 75.8351 209.479 63.7539 209.479C51.6727 209.479 41.8789 219.259 41.8789 231.323C41.8789 243.387 51.6727 253.167 63.7539 253.167Z" stroke="black" stroke-width="4" stroke-miterlimit="10" stroke-linecap="round" stroke-linejoin="round"/>
<path d="M197.921 135.21C189.171 117.735 172.4 99.5321 149.796 84.9696C127.191 70.4071 103.858 63.854 83.4414 63.854L44.0664 126.473C52.8164 143.948 69.5872 162.151 92.1914 176.713C114.796 191.276 138.858 197.829 158.546 197.829L197.921 135.21Z" stroke="black" stroke-width="4" stroke-miterlimit="10" stroke-linecap="round" stroke-linejoin="round"/>
<path d="M123.545 79.1445L76.1497 155.598" stroke="black" stroke-width="4" stroke-miterlimit="10" stroke-linecap="round" stroke-linejoin="round"/>
<path d="M164.379 191.276L231.462 253.167" stroke="black" stroke-width="4" stroke-miterlimit="10" stroke-linecap="round" stroke-linejoin="round"/>
<path d="M63.7539 231.323L106.775 183.995" stroke="black" stroke-width="4" stroke-miterlimit="10" stroke-linecap="round" stroke-linejoin="round"/>
<path d="M78.3372 216.76H162.191C181.879 216.76 200.108 205.838 209.587 187.635H231.462" stroke="black" stroke-width="4" stroke-miterlimit="10" stroke-linecap="round" stroke-linejoin="round"/>
</svg>
