<?xml version="1.0" encoding="UTF-8"?>
<svg id="Layer_2" data-name="Layer 2" xmlns="http://www.w3.org/2000/svg" viewBox="0 0 312.44 203.39">
  <defs>
    <style>
      .cls-1 {
        stroke-width: 0px;
      }
    </style>
  </defs>
  <g id="Layer_1-2" data-name="Layer 1">
    <g>
      <path class="cls-1" d="m262.21,54.93c-1.49.08-2.76.15-4.68.25,0-2.04,0-3.82,0-5.6,0-13-.21-26,.11-38.99.11-4.64-1.27-5.85-5.84-5.83-49.98.16-99.97.11-149.95.12-13.33,0-26.66,0-39.99,0q-7.15,0-7.15,7.4c0,13,.07,25.99-.1,38.99-.02,1.49-1.45,2.97-2.22,4.45-.81-1.49-2.3-2.98-2.32-4.48-.18-14.33-.15-28.66-.08-42.99C50.01,1.88,51.97.01,58.48,0,123.46,0,188.44,0,253.42.02c7.28,0,9,1.83,9.01,9.25.01,13.66.01,27.33,0,40.99,0,1.47-.13,2.94-.22,4.67Z"/>
      <path class="cls-1" d="m257.42,198.59v-50.63h4.48c.19.56.47,1,.47,1.45.04,15.5.09,30.99.04,46.49-.02,5.14-2.12,7.32-7.27,7.41-8,.14-16,.06-23.99.06-56.15,0-112.3,0-168.46,0-12.36,0-12.75-.4-12.74-12.53,0-13.16.07-26.33,0-39.49-.02-3.13.75-4.77,4.76-3.59,0,7.82,0,15.61,0,23.4,0,7.33.26,14.68-.09,21.99-.22,4.56,1.49,5.59,5.75,5.55,18.99-.2,37.99-.09,56.98-.09,44.32,0,88.64,0,132.97,0h7.12Z"/>
      <path class="cls-1" d="m193.54,79.17c5,6.47,9.62,12.46,13.98,18.1-6.45,2.11-12.59.25-16.87-5.93-2.08-3.01-4-6.14-6.26-9.01-.92-1.17-2.54-1.78-4.23-2.9v18.07h-10.48v-37.14c6.8,0,14.23-.41,21.59.15,4.85.37,9.82,2.21,10.9,7.91,1.1,5.77-3.37,8.12-8.64,10.76Zm-13.61-16.63v14.6c4.2.67,8.6,1.38,10.8-2.77,1.26-2.39,1.5-6.32.4-8.74-2.12-4.66-6.84-3.39-11.2-3.1Z"/>
      <path class="cls-1" d="m205.18,123.26c.1-11.63,7.88-19.21,19.62-19.1,11.63.11,19.51,7.98,19.45,19.42-.06,11.33-8.23,19.22-19.78,19.09-11.78-.13-19.39-7.78-19.29-19.41Zm29.15.31c-1.15-4.36-1.69-8.74-3.46-12.54-2.75-5.88-9.53-5.93-12.4-.13-4.05,8.18-4.07,16.74-.06,24.96,2.87,5.88,9.52,5.98,12.37.1,1.83-3.76,2.39-8.14,3.55-12.39Z"/>
      <path class="cls-1" d="m62.98,97.99c-11.47-.06-19.25-7.71-19.35-19.03-.1-11.52,7.81-19.21,19.67-19.11,11.54.1,19.18,7.78,19.07,19.18-.11,11.34-7.96,19.02-19.39,18.96Zm-9.36-19.6c.99,4.19,1.38,8.44,3.08,12.1.99,2.14,4.02,4.55,6.19,4.6,2.15.05,5.38-2.21,6.38-4.3,3.77-7.88,3.71-16.2-.07-24.08-.97-2.02-4-4.33-5.97-4.23-2.26.11-5.3,2.3-6.38,4.41-1.75,3.43-2.19,7.54-3.22,11.5Z"/>
      <path class="cls-1" d="m68.75,123.26c.1,11.78-7.48,19.4-19.33,19.41-11.69,0-19.65-7.85-19.59-19.33.06-11.3,7.77-18.99,19.26-19.18,11.8-.2,19.56,7.34,19.66,19.11Zm-9.57.25c-1.16-4.28-1.79-8.62-3.59-12.4-.94-1.97-3.94-4.02-6.05-4.06-2.1-.03-5.21,1.92-6.19,3.85-4.12,8.13-4.19,16.7-.09,24.87.99,1.97,4.06,4.13,6.05,4.03,2.27-.12,5.33-2.22,6.39-4.3,1.82-3.58,2.35-7.81,3.48-11.98Z"/>
      <path class="cls-1" d="m254.87,113.91v28.17c-1.01.05-2.72.13-4.15.2v-37.57c5.78-1.54,10.31-.08,13.81,5.74,3.48,5.79,7.94,10.98,12.76,17.5v-23.32h3.82v38.06c-.5.35-1,.71-1.49,1.06-1.6-1.1-3.59-1.89-4.73-3.35-6.62-8.52-13.03-17.2-20.03-26.51Z"/>
      <path class="cls-1" d="m88.87,60.27c5.61-1.23,10.43-.12,13.98,6.02,3.3,5.7,7.77,10.73,12.3,16.84v-22.8h3.93v38c-.54.32-1.07.65-1.61.97-1.58-1.2-3.5-2.13-4.67-3.64-6.57-8.52-12.95-17.19-19.93-26.51v28.44h-4.01v-37.31Z"/>
      <path class="cls-1" d="m283.94,97.49v-37.19h27.32v4.18c-5.33-.91-10.81-1.84-16.79-2.86v14.83c4.21-.3,8.23-.59,12.5-.9v4.44c-3.9-.48-7.87-.96-12.36-1.51v17.39c5.95-.88,11.63-1.72,17.31-2.56-.09.5-.39,2.2-.74,4.18h-27.24Z"/>
      <path class="cls-1" d="m223.61,76.59c4.38-.41,8.28-.77,12.46-1.16v4.57c-3.99-.48-7.98-.95-12.76-1.53,0,3.35,0,5.95,0,8.55s0,4.96,0,8.85c6.29-.92,12.08-1.77,17.86-2.62-.17.76-.54,2.49-.94,4.29-1.25.1-2.23.24-3.21.24-7.97.02-15.95,0-23.97,0v-37.56h27.3c.09,1.77.17,3.36.26,5.06-2.97-1.01-5.61-2.29-8.39-2.76-2.71-.46-5.55-.1-8.62-.1v14.17Z"/>
      <path class="cls-1" d="m109.91,104.46h10.52c0,9.51-.15,18.87.07,28.23.09,3.75,2.42,6.03,6.35,6.43,5.5.56,9.97-1.41,11.44-5.14,1.37-3.48.83-25.45-.83-29.33h4.38c0,8.12.03,16.29,0,24.47-.04,8.87-3.19,12.41-11.98,13.19-2.62.23-5.33.14-7.95-.2-7.16-.93-10.96-5.06-11.22-12.33-.2-5.65.04-11.32-.07-16.97-.05-2.73-.46-5.46-.72-8.34Z"/>
      <path class="cls-1" d="m171.94,142.07h-10.79v-35.99c-4.49,1.3-8.57,2.49-12.73,3.69.08-1.17.2-2.94.35-5.05h35.56c.16,1.86.32,3.75.43,5-4.22-1.2-8.32-2.37-12.82-3.65v35.99Z"/>
      <path class="cls-1" d="m162.55,68.07c-7.78-7.1-17.46-7.9-22.97-2.15-5.84,6.1-5.83,19.85,0,25.89,5.42,5.61,15.29,4.8,22.77-1.85,1.17,4.82,1.12,5.1-3.1,6.39-8.44,2.58-16.81,2.48-24.78-1.58-6.51-3.31-9.92-8.88-9.8-16.17.11-7.28,3.67-12.71,10.26-15.89,7.73-3.72,15.77-3.51,23.92-1.53,3.56.86,5.18,2.71,3.7,6.9Z"/>
      <path class="cls-1" d="m244.37,65.07c.07-1.16.17-2.8.29-4.74h35.18c.21,1.73.44,3.61.63,5.13-4.14-1.32-8.17-2.6-12.99-4.14v36.21h-10.49v-35.81c-4.25,1.13-8.32,2.21-12.62,3.34Z"/>
      <path class="cls-1" d="m37.76,68.04c-6.99-6.95-16.92-7.98-22.65-2.35-6.32,6.2-6.21,20.5.21,26.57,5.57,5.27,15.86,4.09,22.35-2.55,1.35,5.14,1.26,5.42-3.51,6.78-8.29,2.37-16.5,2.26-24.32-1.68C3.49,91.62.14,86.3,0,79.17c-.13-6.92,2.82-12.39,8.84-15.72,8.69-4.81,17.93-4.77,27.05-1.47,1.57.57,2.27,3.53,3.38,5.38-.5.22-1.01.44-1.51.67Z"/>
      <path class="cls-1" d="m308.88,112.28c-1.99-1.67-3.76-3.8-6.03-4.9-3.32-1.61-6.58-.97-8.54,2.62-2.02,3.7.46,5.61,3.22,7.1,2.33,1.27,4.86,2.14,7.27,3.27,5.34,2.5,8.27,7.33,7.52,12.28-.77,5.14-4.61,8.81-10.65,9.59-2.76.36-5.62.03-8.42-.15-4.58-.3-7.24-2.22-5.48-7.79,1.13,1.03,1.99,2.35,3.19,2.8,3.15,1.17,6.41,2.49,9.67,2.65,1.51.08,3.89-2.15,4.48-3.83.44-1.26-.93-3.83-2.25-4.88-2.16-1.72-4.86-2.8-7.44-3.92-4.56-1.97-8.16-4.79-8.44-10.11-.24-4.64,1.61-8.49,5.79-10.85,5.04-2.84,10.38-2.77,15.25-.02,1.35.76,1.36,3.91,1.98,5.96-.38.06-.76.12-1.14.19Z"/>
      <path class="cls-1" d="m22.26,112.62c-2.33-1.98-4.08-4.14-6.34-5.23-3.31-1.61-6.59-1-8.55,2.59-2.01,3.67.42,5.61,3.19,7.12,2.18,1.19,4.54,2.06,6.81,3.08,5.74,2.58,8.74,7.25,7.99,12.46-.75,5.25-4.81,8.97-11.12,9.71-2.6.3-5.31.06-7.93-.27-6.06-.78-6.33-1.25-5.69-6.75,3.54,1.54,7.18,3.88,11.1,4.52,1.96.32,5-2.06,6.39-4.04.54-.77-1.79-4.14-3.42-5.68-1.49-1.41-3.77-2.02-5.76-2.86-7.28-3.04-10.15-7.83-8.45-14.25,1.53-5.81,7.57-9.45,14.52-8.76,6.88.68,7.77,1.67,7.26,8.36Z"/>
      <path class="cls-1" d="m86.4,139.92c6.36-.05,12.6,1.5,17.96-3.83-.36,1.92-.73,3.83-1.13,5.97h-27.42v-37.45h10.6v35.31Z"/>
      <path class="cls-1" d="m199.15,142.14h-10.59v-37.37h10.59v37.37Z"/>
    </g>
  </g>
</svg>