<svg width="313" height="204" viewBox="0 0 313 204" fill="none" xmlns="http://www.w3.org/2000/svg">
<g clip-path="url(#clip0_153_80)">
<path d="M262.208 54.93C260.718 55.01 259.448 55.08 257.528 55.18C257.528 53.14 257.528 51.36 257.528 49.58C257.528 36.58 257.318 23.58 257.638 10.59C257.748 5.95 256.368 4.74 251.798 4.76C201.818 4.92 151.828 4.87 101.848 4.88C88.5183 4.88 75.1883 4.88 61.8583 4.88C57.0916 4.88 54.7083 7.34667 54.7083 12.28C54.7083 25.28 54.7783 38.27 54.6083 51.27C54.5883 52.76 53.1583 54.24 52.3883 55.72C51.5783 54.23 50.0883 52.74 50.0683 51.24C49.8883 36.91 49.9183 22.58 49.9883 8.25C50.0083 1.88 51.9683 0.01 58.4783 0C123.458 0 188.438 0 253.418 0.02C260.698 0.02 262.418 1.85 262.428 9.27C262.438 22.93 262.438 36.6 262.428 50.26C262.428 51.73 262.298 53.2 262.208 54.93Z" fill="white"/>
<path d="M257.42 198.59V147.96H261.9C262.09 148.52 262.37 148.96 262.37 149.41C262.41 164.91 262.46 180.4 262.41 195.9C262.39 201.04 260.29 203.22 255.14 203.31C247.14 203.45 239.14 203.37 231.15 203.37C175 203.37 118.85 203.37 62.6896 203.37C50.3296 203.37 49.9396 202.97 49.9496 190.84C49.9496 177.68 50.0196 164.51 49.9496 151.35C49.9296 148.22 50.6996 146.58 54.7096 147.76C54.7096 155.58 54.7096 163.37 54.7096 171.16C54.7096 178.49 54.9696 185.84 54.6196 193.15C54.3996 197.71 56.1096 198.74 60.3696 198.7C79.3596 198.5 98.3596 198.61 117.35 198.61C161.67 198.61 205.99 198.61 250.32 198.61H257.44L257.42 198.59Z" fill="white"/>
<path d="M193.54 79.1696C198.54 85.6396 203.16 91.6296 207.52 97.2696C201.07 99.3796 194.93 97.5196 190.65 91.3396C188.57 88.3296 186.65 85.1996 184.39 82.3296C183.47 81.1596 181.85 80.5496 180.16 79.4296V97.4996H169.68V60.3596C176.48 60.3596 183.91 59.9496 191.27 60.5096C196.12 60.8796 201.09 62.7196 202.17 68.4196C203.27 74.1896 198.8 76.5396 193.53 79.1796L193.54 79.1696ZM179.93 62.5396V77.1396C184.13 77.8096 188.53 78.5196 190.73 74.3696C191.99 71.9796 192.23 68.0496 191.13 65.6296C189.01 60.9696 184.29 62.2396 179.93 62.5296V62.5396Z" fill="white"/>
<path d="M205.181 123.259C205.281 111.629 213.061 104.049 224.801 104.159C236.431 104.269 244.311 112.139 244.251 123.579C244.191 134.909 236.021 142.799 224.471 142.669C212.691 142.539 205.081 134.889 205.181 123.259ZM234.331 123.569C233.181 119.209 232.641 114.829 230.871 111.029C228.121 105.149 221.341 105.099 218.471 110.899C214.421 119.079 214.401 127.639 218.411 135.859C221.281 141.739 227.931 141.839 230.781 135.959C232.611 132.199 233.171 127.819 234.331 123.569Z" fill="white"/>
<path d="M62.9798 97.9906C51.5098 97.9306 43.7298 90.2806 43.6298 78.9606C43.5298 67.4406 51.4398 59.7506 63.2998 59.8506C74.8398 59.9506 82.4798 67.6306 82.3698 79.0306C82.2598 90.3706 74.4098 98.0506 62.9798 97.9906ZM53.6198 78.3906C54.6098 82.5806 54.9998 86.8306 56.6998 90.4906C57.6898 92.6306 60.7198 95.0406 62.8898 95.0906C65.0398 95.1406 68.2698 92.8806 69.2698 90.7906C73.0398 82.9106 72.9798 74.5906 69.1998 66.7106C68.2298 64.6906 65.1998 62.3806 63.2298 62.4806C60.9698 62.5906 57.9298 64.7806 56.8498 66.8906C55.0998 70.3206 54.6598 74.4306 53.6298 78.3906H53.6198Z" fill="white"/>
<path d="M68.7485 123.26C68.8485 135.04 61.2685 142.66 49.4185 142.67C37.7285 142.67 29.7685 134.82 29.8285 123.34C29.8885 112.04 37.5985 104.35 49.0885 104.16C60.8885 103.96 68.6485 111.5 68.7485 123.27V123.26ZM59.1785 123.51C58.0185 119.23 57.3885 114.89 55.5885 111.11C54.6485 109.14 51.6485 107.09 49.5385 107.05C47.4385 107.02 44.3285 108.97 43.3485 110.9C39.2285 119.03 39.1585 127.6 43.2585 135.77C44.2485 137.74 47.3185 139.9 49.3085 139.8C51.5785 139.68 54.6385 137.58 55.6985 135.5C57.5185 131.92 58.0485 127.69 59.1785 123.52V123.51Z" fill="white"/>
<path d="M254.869 113.91V142.08C253.859 142.13 252.149 142.21 250.719 142.28V104.71C256.499 103.17 261.029 104.63 264.529 110.45C268.009 116.24 272.469 121.43 277.289 127.95V104.63H281.109V142.69C280.609 143.04 280.109 143.4 279.619 143.75C278.019 142.65 276.029 141.86 274.889 140.4C268.269 131.88 261.859 123.2 254.859 113.89L254.869 113.91Z" fill="white"/>
<path d="M88.8694 60.2708C94.4794 59.0408 99.2994 60.1508 102.849 66.2908C106.149 71.9908 110.619 77.0208 115.149 83.1308V60.3308H119.079V98.3308C118.539 98.6508 118.009 98.9808 117.469 99.3008C115.889 98.1008 113.969 97.1708 112.799 95.6608C106.229 87.1408 99.8494 78.4708 92.8694 69.1508V97.5908H88.8594V60.2808L88.8694 60.2708Z" fill="white"/>
<path d="M283.941 97.4908V60.3008H311.261V64.4808C305.931 63.5708 300.451 62.6408 294.471 61.6208V76.4508C298.681 76.1508 302.701 75.8608 306.971 75.5508V79.9908C303.071 79.5108 299.101 79.0308 294.611 78.4808V95.8708C300.561 94.9908 306.241 94.1508 311.921 93.3108C311.831 93.8108 311.531 95.5108 311.181 97.4908H283.941Z" fill="white"/>
<path d="M223.611 76.5907C227.991 76.1807 231.891 75.8207 236.071 75.4307V80.0007C232.081 79.5207 228.091 79.0507 223.311 78.4707C223.311 81.8207 223.311 84.4207 223.311 87.0207C223.311 89.6207 223.311 91.9807 223.311 95.8707C229.601 94.9507 235.391 94.1007 241.171 93.2507C241.001 94.0107 240.631 95.7407 240.231 97.5407C238.981 97.6407 238.001 97.7807 237.021 97.7807C229.051 97.8007 221.071 97.7807 213.051 97.7807V60.2207H240.351C240.441 61.9907 240.521 63.5807 240.611 65.2807C237.641 64.2707 235.001 62.9907 232.221 62.5207C229.511 62.0607 226.671 62.4207 223.601 62.4207V76.5907H223.611Z" fill="white"/>
<path d="M109.908 104.461H120.428C120.428 113.971 120.278 123.331 120.498 132.691C120.588 136.441 122.918 138.721 126.848 139.121C132.348 139.681 136.818 137.711 138.288 133.981C139.658 130.501 139.118 108.531 137.458 104.651H141.838C141.838 112.771 141.868 120.941 141.838 129.121C141.798 137.991 138.648 141.531 129.858 142.311C127.238 142.541 124.528 142.451 121.908 142.111C114.748 141.181 110.948 137.051 110.688 129.781C110.488 124.131 110.728 118.461 110.618 112.811C110.568 110.081 110.158 107.351 109.898 104.471L109.908 104.461Z" fill="white"/>
<path d="M171.942 142.071H161.152V106.081C156.662 107.381 152.582 108.571 148.422 109.771C148.502 108.601 148.622 106.831 148.772 104.721H184.332C184.492 106.581 184.652 108.471 184.762 109.721C180.542 108.521 176.442 107.351 171.942 106.071V142.061V142.071Z" fill="white"/>
<path d="M162.551 68.0709C154.771 60.9709 145.091 60.1709 139.581 65.9209C133.741 72.0209 133.751 85.7709 139.581 91.8109C145.001 97.4209 154.871 96.6109 162.351 89.9609C163.521 94.7809 163.471 95.0609 159.251 96.3509C150.811 98.9309 142.441 98.8309 134.471 94.7709C127.961 91.4609 124.551 85.8909 124.671 78.6009C124.781 71.3209 128.341 65.8909 134.931 62.7109C142.661 58.9909 150.701 59.2009 158.851 61.1809C162.411 62.0409 164.031 63.8909 162.551 68.0809V68.0709Z" fill="white"/>
<path d="M244.371 65.0701C244.441 63.9101 244.541 62.2701 244.661 60.3301H279.841C280.051 62.0601 280.281 63.9401 280.471 65.4601C276.331 64.1401 272.301 62.8601 267.481 61.3201V97.5301H256.991V61.7201C252.741 62.8501 248.671 63.9301 244.371 65.0601V65.0701Z" fill="white"/>
<path d="M37.7602 68.0404C30.7702 61.0904 20.8402 60.0604 15.1102 65.6904C8.79021 71.8904 8.90021 86.1904 15.3202 92.2604C20.8902 97.5304 31.1802 96.3504 37.6702 89.7104C39.0202 94.8504 38.9302 95.1304 34.1602 96.4904C25.8702 98.8604 17.6602 98.7504 9.84021 94.8104C3.49021 91.6204 0.140209 86.3004 0.000209103 79.1704C-0.129791 72.2504 2.82021 66.7804 8.84021 63.4504C17.5302 58.6404 26.7702 58.6804 35.8902 61.9804C37.4602 62.5504 38.1602 65.5104 39.2702 67.3604C38.7702 67.5804 38.2602 67.8004 37.7602 68.0304V68.0404Z" fill="white"/>
<path d="M308.882 112.281C306.892 110.611 305.122 108.481 302.852 107.381C299.532 105.771 296.272 106.411 294.312 110.001C292.292 113.701 294.772 115.611 297.532 117.101C299.862 118.371 302.392 119.241 304.802 120.371C310.142 122.871 313.072 127.701 312.322 132.651C311.552 137.791 307.712 141.461 301.672 142.241C298.912 142.601 296.052 142.271 293.252 142.091C288.672 141.791 286.012 139.871 287.772 134.301C288.902 135.331 289.762 136.651 290.962 137.101C294.112 138.271 297.372 139.591 300.632 139.751C302.142 139.831 304.522 137.601 305.112 135.921C305.552 134.661 304.182 132.091 302.862 131.041C300.702 129.321 298.002 128.241 295.422 127.121C290.862 125.151 287.262 122.331 286.982 117.011C286.742 112.371 288.592 108.521 292.772 106.161C297.812 103.321 303.152 103.391 308.022 106.141C309.372 106.901 309.382 110.051 310.002 112.101C309.622 112.161 309.242 112.221 308.862 112.291L308.882 112.281Z" fill="white"/>
<path d="M22.2592 112.619C19.9292 110.639 18.1792 108.479 15.9192 107.389C12.6092 105.779 9.32923 106.389 7.36923 109.979C5.35923 113.649 7.78923 115.589 10.5592 117.099C12.7392 118.289 15.0992 119.159 17.3692 120.179C23.1092 122.759 26.1092 127.429 25.3592 132.639C24.6092 137.889 20.5492 141.609 14.2392 142.349C11.6392 142.649 8.92923 142.409 6.30923 142.079C0.24923 141.299 -0.0207703 140.829 0.61923 135.329C4.15923 136.869 7.79923 139.209 11.7192 139.849C13.6792 140.169 16.7192 137.789 18.1092 135.809C18.6492 135.039 16.3192 131.669 14.6892 130.129C13.1992 128.719 10.9192 128.109 8.92923 127.269C1.64923 124.229 -1.22077 119.439 0.47923 113.019C2.00923 107.209 8.04923 103.569 14.9992 104.259C21.8792 104.939 22.7692 105.929 22.2592 112.619Z" fill="white"/>
<path d="M86.3986 139.919C92.7586 139.869 98.9986 141.419 104.359 136.089C103.999 138.009 103.629 139.919 103.229 142.059H75.8086V104.609H86.4086V139.919H86.3986Z" fill="white"/>
<path d="M199.149 142.14H188.559V104.77H199.149V142.14Z" fill="white"/>
</g>
<defs>
<clipPath id="clip0_153_80">
<rect width="312.44" height="203.39" fill="white"/>
</clipPath>
</defs>
</svg>
